<?xml version="1.0" encoding="utf-8"?>
<!-- Generator: Adobe Illustrator 16.0.3, SVG Export Plug-In . SVG Version: 6.00 Build 0)  -->
<!DOCTYPE svg PUBLIC "-//W3C//DTD SVG 1.1//EN" "http://www.w3.org/Graphics/SVG/1.1/DTD/svg11.dtd">
<svg version="1.1" id="Layer_1" xmlns="http://www.w3.org/2000/svg" xmlns:xlink="http://www.w3.org/1999/xlink" x="0px" y="0px"
	 width="595.858px" height="148.313px" viewBox="0 0 595.858 148.313" enable-background="new 0 0 595.858 148.313"
	 xml:space="preserve">
<g>
	<path fill="#2A3452" d="M217.829,119.891c-6.996,6.996-15.649,10.493-25.957,10.493c-10.31,0-18.963-3.497-25.957-10.493
		c-7.089-7.087-10.631-15.739-10.631-25.957c0-10.124,3.542-18.729,10.631-25.818c7.087-7.087,15.74-10.631,25.957-10.631
		c10.217,0,18.868,3.544,25.957,10.631c7.087,7.089,10.631,15.694,10.631,25.818C228.46,104.151,224.916,112.804,217.829,119.891z
		 M175.994,93.934c0,4.787,1.519,8.699,4.556,11.736s6.811,4.557,11.322,4.557c4.509,0,8.284-1.52,11.321-4.557
		s4.557-6.949,4.557-11.736c0-4.784-1.519-8.698-4.557-11.735c-3.038-3.038-6.813-4.556-11.321-4.556
		c-4.511,0-8.284,1.518-11.322,4.556C177.513,85.235,175.994,89.149,175.994,93.934z"/>
	<path fill="#2A3452" d="M279.27,59.417v19.882h-14.221v24.438c0,2.67,1.057,4.396,3.176,5.177c2.116,0.783,5.799,1.036,11.045,0.76
		v18.777c-13.071,1.381-22.184,0.138-27.337-3.728c-5.063-3.957-7.594-10.953-7.594-20.986V79.299h-11.046V59.417h11.046V46.3
		l20.71-6.213v19.33H279.27z"/>
	<path fill="#2A3452" d="M348.718,119.891c-6.996,6.996-15.649,10.493-25.957,10.493c-10.31,0-18.963-3.497-25.957-10.493
		c-7.089-7.087-10.631-15.739-10.631-25.957c0-10.124,3.542-18.729,10.631-25.818c7.087-7.087,15.739-10.631,25.957-10.631
		c10.217,0,18.868,3.544,25.957,10.631c7.087,7.089,10.631,15.694,10.631,25.818C359.349,104.151,355.805,112.804,348.718,119.891z
		 M306.883,93.934c0,4.787,1.519,8.699,4.556,11.736c3.038,3.037,6.812,4.557,11.322,4.557c4.509,0,8.284-1.52,11.321-4.557
		c3.038-3.037,4.557-6.949,4.557-11.736c0-4.784-1.519-8.698-4.557-11.735c-3.037-3.038-6.813-4.556-11.321-4.556
		c-4.511,0-8.284,1.518-11.322,4.556C308.401,85.235,306.883,89.149,306.883,93.934z"/>
	<path fill="#2A3452" d="M411.538,57.484c7.456,0,13.576,2.533,18.363,7.594c4.971,5.156,7.456,12.15,7.456,20.987v42.387h-20.711
		v-39.35c0-3.956-1.104-7.041-3.313-9.25s-5.108-3.314-8.698-3.314c-4.052,0-7.203,1.221-9.458,3.659
		c-2.256,2.44-3.383,5.961-3.383,10.563v37.692h-20.71V59.417h20.71v6.489C395.937,60.292,402.517,57.484,411.538,57.484z"/>
	<path fill="#2A3452" d="M476.43,117.268c0,3.59-1.29,6.675-3.866,9.251c-2.578,2.575-5.661,3.865-9.25,3.865
		c-3.59,0-6.675-1.29-9.251-3.865c-2.578-2.576-3.866-5.661-3.866-9.251s1.288-6.673,3.866-9.251
		c2.576-2.575,5.661-3.865,9.251-3.865c3.589,0,6.672,1.29,9.25,3.865C475.14,110.595,476.43,113.678,476.43,117.268z"/>
	<path fill="#2A3452" d="M509.29,49.752c-2.395,2.395-5.294,3.59-8.698,3.59c-3.406,0-6.352-1.195-8.837-3.59
		c-2.395-2.485-3.59-5.43-3.59-8.836c0-3.404,1.195-6.304,3.59-8.698c2.485-2.485,5.431-3.728,8.837-3.728
		c3.404,0,6.304,1.243,8.698,3.728c2.485,2.395,3.728,5.294,3.728,8.698C513.018,44.322,511.775,47.267,509.29,49.752z
		 M510.946,128.451h-20.71V59.417h20.71V128.451z"/>
	<path fill="#2A3452" d="M585.228,119.891c-6.996,6.996-15.649,10.493-25.957,10.493c-10.31,0-18.963-3.497-25.957-10.493
		c-7.089-7.087-10.632-15.739-10.632-25.957c0-10.124,3.543-18.729,10.632-25.818c7.087-7.087,15.739-10.631,25.957-10.631
		c10.217,0,18.868,3.544,25.957,10.631c7.087,7.089,10.631,15.694,10.631,25.818C595.858,104.151,592.314,112.804,585.228,119.891z
		 M543.393,93.934c0,4.787,1.519,8.699,4.556,11.736c3.038,3.037,6.812,4.557,11.322,4.557c4.509,0,8.284-1.52,11.321-4.557
		c3.038-3.037,4.557-6.949,4.557-11.736c0-4.784-1.519-8.698-4.557-11.735c-3.037-3.038-6.813-4.556-11.321-4.556
		c-4.511,0-8.284,1.518-11.322,4.556C544.911,85.235,543.393,89.149,543.393,93.934z"/>
</g>
<g>
	<path fill="#3361FF" d="M78.75,88.199c0.291,1.625,0.428,3.303,0.428,5.123c0,7.199-2.281,13.102-6.863,17.705
		c-4.582,4.561-10.283,6.883-17.1,6.883c-6.797,0-12.496-2.322-17.08-6.883c-4.582-4.604-6.885-10.506-6.885-17.705
		c0-1.486,0.123-2.885,0.313-4.254L7.609,65.113C2.578,73.428,0,82.817,0,93.322c0,15.424,5.342,28.477,16.049,39.166
		c10.551,10.549,23.607,15.824,39.166,15.824c15.557,0,28.611-5.275,39.186-15.824c10.686-10.689,16.029-23.742,16.029-39.166
		c0-10.758-2.701-20.329-7.982-28.821L78.75,88.199z"/>
	<polygon fill="#3361FF" points="36.4,77.533 54.645,95.76 54.721,95.705 54.816,95.76 73.582,77.014 95.281,55.315 128.48,22.096 
		106.387,0 66.938,39.43 54.721,51.664 42.715,39.638 29.221,26.143 7.104,48.218 14.689,55.825 	"/>
</g>
</svg>
